<svg width="112" height="29" viewBox="0 0 112 29" fill="none" xmlns="http://www.w3.org/2000/svg">
<mask id="mask0_1245_113081" style="mask-type:luminance" maskUnits="userSpaceOnUse" x="0" y="7" width="16" height="18">
<mask id="mask1_1245_113081" style="mask-type:luminance" maskUnits="userSpaceOnUse" x="0" y="0" width="112" height="29">
<path d="M111.665 0H0.421875V28.8113H111.665V0Z" fill="white"/>
</mask>
<g mask="url(#mask1_1245_113081)">
<path d="M4.8392 16.3733C4.86937 16.3733 5.79325 16.7475 6.76616 17.1516L9.76031 18.3564C10.1027 18.4895 10.3825 18.745 10.5445 19.0726C10.7064 19.4002 10.7388 19.7762 10.6352 20.1263C10.3938 21.0692 9.255 21.9635 6.81519 21.623C5.84605 21.492 3.58724 21.0131 3.56461 21.0093C3.51182 21.0093 2.1505 20.5042 1.30203 20.9532C1.15555 21.0282 1.02735 21.134 0.926385 21.2632C0.825423 21.3925 0.754143 21.5421 0.717536 21.7015C0.400775 22.9588 1.70552 23.3965 1.71307 23.4003C2.17013 23.557 2.6376 23.682 3.1121 23.7745L3.45903 23.868C5.21107 24.2647 6.99848 24.4878 8.79495 24.534C10.3373 24.5116 14.0743 24.1599 15.5525 21.4995C15.8898 20.663 16.0191 19.7582 15.9296 18.8616C15.7486 17.855 15.4469 16.8485 13.667 15.7148C13.2221 15.4342 11.8306 14.9664 10.6012 14.5698C9.95264 14.364 9.3342 14.1545 9.00989 14.0235C6.8529 13.1629 6.46449 12.3772 6.43055 11.9843C6.41651 11.5357 6.5819 11.0999 6.89061 10.772C7.41101 10.2182 8.27078 9.92632 9.45487 9.92632C10.5386 9.88347 11.6217 10.0265 12.6564 10.3491C12.796 10.3978 12.9355 10.4427 13.0863 10.4801C13.2985 10.5556 13.5237 10.5888 13.7488 10.5779C13.974 10.567 14.1948 10.5121 14.3986 10.4165C14.5248 10.3302 14.6319 10.2193 14.7136 10.0907C14.7953 9.96207 14.8498 9.81833 14.8737 9.66816C14.919 9.42495 14.9756 8.61299 13.6821 8.09663C13.5765 8.05547 10.9293 7.03024 6.75863 7.60647C5.7752 7.73502 4.82338 8.03926 3.94926 8.50447C2.373 9.36507 1.55469 10.7084 1.58485 12.3697C1.60082 12.9753 1.75667 13.5693 2.04041 14.1058C2.32415 14.6423 2.7282 15.107 3.22145 15.4641C3.70161 15.8428 4.23856 16.1445 4.8128 16.3583" fill="white"/>
</g>
</mask>
<g mask="url(#mask0_1245_113081)">
<path d="M17.8669 5.57446H-1.19531V26.4346H17.8669V5.57446Z" fill="#F1AE34"/>
</g>
<mask id="mask2_1245_113081" style="mask-type:luminance" maskUnits="userSpaceOnUse" x="19" y="3" width="25" height="26">
<mask id="mask3_1245_113081" style="mask-type:luminance" maskUnits="userSpaceOnUse" x="0" y="0" width="112" height="29">
<path d="M111.665 0H0.421875V28.8113H111.665V0Z" fill="white"/>
</mask>
<g mask="url(#mask3_1245_113081)">
<path d="M31.468 20.1645C30.5927 20.166 29.7366 19.9097 29.0081 19.4282C28.2796 18.9467 27.7115 18.2615 27.3756 17.4594C27.0398 16.6573 26.9513 15.7744 27.1215 14.9224C27.2916 14.0704 27.7127 13.2877 28.3313 12.6733C28.95 12.0589 29.7385 11.6404 30.597 11.4709C31.4555 11.3013 32.3454 11.3883 33.1541 11.7209C33.9627 12.0534 34.6537 12.6166 35.1396 13.339C35.6256 14.0614 35.8845 14.9107 35.8838 15.7792C35.8808 16.9407 35.4148 18.0538 34.5874 18.8755C33.76 19.6971 32.6386 20.1606 31.468 20.1645ZM31.468 3.49887C29.0202 3.49887 26.6274 4.21909 24.5921 5.56847C22.5568 6.91786 20.9705 8.83579 20.0338 11.0797C19.097 13.3237 18.8519 15.7928 19.3295 18.175C19.807 20.5571 20.9858 22.7453 22.7166 24.4627C24.4475 26.1802 26.6527 27.3498 29.0535 27.8236C31.4543 28.2974 33.9427 28.0542 36.2042 27.1248C38.4657 26.1953 40.3986 24.6213 41.7585 22.6018C43.1185 20.5823 43.8443 18.208 43.8443 15.7792C43.8478 14.1645 43.53 12.5651 42.9092 11.0725C42.2885 9.57996 41.3769 8.22367 40.2267 7.0814C39.0766 5.93914 37.7105 5.03335 36.2069 4.41602C34.7032 3.79868 33.0915 3.48192 31.4642 3.4839L31.468 3.49887Z" fill="white"/>
</g>
</mask>
<g mask="url(#mask2_1245_113081)">
<path d="M45.7269 1.6272H17.207V29.9259H45.7269V1.6272Z" fill="#F1AE34"/>
</g>
<mask id="mask4_1245_113081" style="mask-type:luminance" maskUnits="userSpaceOnUse" x="47" y="7" width="25" height="17">
<mask id="mask5_1245_113081" style="mask-type:luminance" maskUnits="userSpaceOnUse" x="0" y="0" width="112" height="29">
<path d="M111.665 0H0.421875V28.8113H111.665V0Z" fill="white"/>
</mask>
<g mask="url(#mask5_1245_113081)">
<path d="M47.6949 9.91128C47.6847 9.64857 47.7304 9.38668 47.829 9.14268C47.9277 8.89868 48.0771 8.67804 48.2674 8.49516C48.4578 8.31229 48.6848 8.17128 48.9338 8.08132C49.1828 7.99136 49.448 7.95447 49.7123 7.97307C50.9191 7.97307 51.677 9.05818 53.1062 9.05818C54.9201 9.05818 55.399 7.97307 57.8539 7.97307C60.6632 7.97307 60.8216 9.05818 62.5563 9.05818C64.389 9.05818 64.717 7.97307 67.945 7.97307C69.657 7.97307 71.5463 8.96464 71.5463 11.0937C71.5463 14.001 71.5463 21.694 71.5463 21.7389C71.5463 22.2678 71.3345 22.7751 70.9576 23.1491C70.5806 23.5231 70.0694 23.7332 69.5363 23.7332C69.0033 23.7332 68.492 23.5231 68.1151 23.1491C67.7382 22.7751 67.5264 22.2678 67.5264 21.7389V12.9982C67.5264 12.0291 67.5264 10.0797 65.8182 10.0385C65.8182 10.0385 61.6324 9.46602 61.6324 16.7399C61.6324 16.8559 61.6324 21.6828 61.6324 21.7202C61.6409 22.2491 61.4373 22.7597 61.0664 23.1397C60.6954 23.5197 60.1876 23.7379 59.6545 23.7463C59.1214 23.7548 58.6068 23.5527 58.2239 23.1847C57.8409 22.8166 57.621 22.3127 57.6125 21.7838V12.9982C57.6125 12.3584 57.7219 10.0385 55.8779 10.0385C52.3105 10.0385 51.7298 13.6568 51.7298 16.6239V21.7202C51.7383 22.2491 51.5347 22.7597 51.1638 23.1397C50.7929 23.5197 50.285 23.7379 49.7519 23.7463C49.2189 23.7548 48.7043 23.5527 48.3213 23.1847C47.9384 22.8166 47.7185 22.3127 47.71 21.7838V9.91128" fill="white"/>
</g>
</mask>
<g mask="url(#mask4_1245_113081)">
<path d="M73.4196 6.08301H45.8086V25.5886H73.4196V6.08301Z" fill="#F1AE34"/>
</g>
<mask id="mask6_1245_113081" style="mask-type:luminance" maskUnits="userSpaceOnUse" x="74" y="0" width="18" height="24">
<mask id="mask7_1245_113081" style="mask-type:luminance" maskUnits="userSpaceOnUse" x="0" y="0" width="112" height="29">
<path d="M111.665 0H0.421875V28.8113H111.665V0Z" fill="white"/>
</mask>
<g mask="url(#mask7_1245_113081)">
<path d="M83.5453 14.3345C83.559 13.8948 83.7461 13.478 84.0662 13.1736C84.3863 12.8693 84.814 12.7017 85.2573 12.7068H87.4218C87.7274 12.7225 88.0329 12.6765 88.3201 12.5717C88.6072 12.4669 88.8699 12.3054 89.0924 12.0969C89.5182 11.622 89.7519 11.0076 89.7485 10.372C89.7652 10.0755 89.7176 9.77895 89.6089 9.5023C89.5003 9.22564 89.3331 8.97532 89.1186 8.76822C88.9042 8.56113 88.6475 8.40207 88.3659 8.30177C88.0842 8.20147 87.7841 8.16227 87.4859 8.1868H85.2724C83.764 8.1868 83.764 7.8463 83.764 6.94454C83.764 6.92584 83.8092 5.07367 85.2912 4.57228C85.79 4.39727 86.3158 4.30991 86.8449 4.3141H89.5109C89.9651 4.31297 90.4069 4.16685 90.7709 3.89731C91.1349 3.62777 91.4018 3.24914 91.5322 2.81742C91.5932 2.62484 91.6249 2.42434 91.6265 2.22249C91.626 1.94732 91.5709 1.67494 91.4643 1.42091C91.3577 1.16687 91.2017 0.936156 91.0053 0.741931C90.8088 0.547705 90.5758 0.39377 90.3194 0.288922C90.063 0.184074 89.7883 0.130371 89.5109 0.130863H86.9655C85.4872 0.143274 84.0251 0.43799 82.6591 0.998935C78.7599 2.71265 78.5751 6.2149 78.5751 6.23735V6.29349C78.379 7.50581 78.0623 8.16435 76.9046 8.16435C76.6482 8.15184 76.3921 8.19451 76.1538 8.28946C75.9156 8.3844 75.7009 8.52935 75.5244 8.71437C75.1497 9.17351 74.9471 9.74747 74.9512 10.3383C74.9458 10.8926 75.1347 11.4315 75.4855 11.8628C75.8363 12.2942 76.3273 12.5912 76.8744 12.7031C77.2996 12.7324 77.6978 12.9205 77.9889 13.2294C78.28 13.5383 78.4423 13.9452 78.4431 14.3681C78.4431 14.413 78.4431 18.8881 78.4431 21.2492C78.4211 21.5959 78.4687 21.9435 78.5833 22.2717C78.6979 22.6 78.8771 22.9023 79.1106 23.1612C79.4727 23.5115 79.9517 23.7178 80.4569 23.7412H81.475C81.8801 23.7248 82.2723 23.5951 82.6063 23.367C83.0324 23.0789 83.5453 22.4764 83.5453 21.2716V14.3345Z" fill="white"/>
</g>
</mask>
<g mask="url(#mask6_1245_113081)">
<path d="M93.5144 -1.75537H73.0645V25.5967H93.5144V-1.75537Z" fill="#F1AE34"/>
</g>
<mask id="mask8_1245_113081" style="mask-type:luminance" maskUnits="userSpaceOnUse" x="91" y="7" width="17" height="22">
<mask id="mask9_1245_113081" style="mask-type:luminance" maskUnits="userSpaceOnUse" x="0" y="0" width="112" height="29">
<path d="M111.665 0H0.421875V28.8113H111.665V0Z" fill="white"/>
</mask>
<g mask="url(#mask9_1245_113081)">
<path d="M98.0707 20.7887C98.2223 21.1186 98.2996 21.4775 98.297 21.8401C98.3162 22.4707 98.1778 23.0963 97.8942 23.6611C97.6107 24.2258 97.1907 24.7121 96.6717 25.0767C95.3368 26.173 93.4362 26.0944 93.4136 26.0944H92.3765C92.0239 26.0959 91.6851 26.2312 91.4299 26.4727C91.1746 26.7141 91.0222 27.0434 91.0039 27.3928C91.0039 28.2085 91.5545 28.7024 92.4746 28.7024H93.4173C94.3655 28.7163 95.3098 28.5812 96.2154 28.3021C98.2829 27.6357 100.001 26.186 100.997 24.2685C101.321 23.6735 104.15 17.3575 106.208 12.7514L107.777 9.25291C107.867 9.05916 107.882 8.83941 107.819 8.63554C107.78 8.52142 107.719 8.41617 107.639 8.32614C107.559 8.23611 107.461 8.16315 107.351 8.11169C106.854 7.91681 106.303 7.90309 105.796 8.07296C105.289 8.24283 104.86 8.5853 104.583 9.03963C104.583 9.09202 102.234 14.091 102.064 14.439C101.608 15.3407 101.061 15.8646 100.556 15.8646C99.9637 15.8646 99.5942 15.7935 98.7457 14.3679C98.6816 14.2556 96.1324 9.79172 95.7289 9.09202C95.4156 8.61764 94.948 8.26393 94.404 8.08968C93.86 7.91542 93.2723 7.93112 92.7385 8.13414C92.6193 8.19046 92.5126 8.26974 92.4245 8.36738C92.3365 8.46502 92.2689 8.57908 92.2257 8.70289C92.1595 8.92716 92.1769 9.16756 92.2747 9.38014C92.2747 9.42878 97.7426 20.1226 98.0707 20.7999" fill="white"/>
</g>
</mask>
<g mask="url(#mask8_1245_113081)">
<path d="M109.752 6.07251H89.1172V30.5733H109.752V6.07251Z" fill="#F1AE34"/>
</g>
<mask id="mask10_1245_113081" style="mask-type:luminance" maskUnits="userSpaceOnUse" x="106" y="18" width="6" height="6">
<mask id="mask11_1245_113081" style="mask-type:luminance" maskUnits="userSpaceOnUse" x="0" y="0" width="112" height="29">
<path d="M111.665 0H0.421875V28.8113H111.665V0Z" fill="white"/>
</mask>
<g mask="url(#mask11_1245_113081)">
<path d="M108.916 20.4857H108.833V21.1031H108.916C109.161 21.1031 109.357 21.0095 109.357 20.77C109.357 20.5306 109.202 20.4857 108.927 20.4857H108.916ZM109.478 22.4201C109.157 21.8514 108.972 21.5034 108.886 21.5034H108.833V22.4201H108.316V20.089H109.093C109.617 20.089 109.896 20.3622 109.896 20.7214C109.888 20.8704 109.832 21.0128 109.736 21.1279C109.641 21.243 109.51 21.3248 109.364 21.3612C109.478 21.3612 109.802 21.9038 110.085 22.4164L109.478 22.4201ZM109.1 19.4866C108.738 19.4672 108.378 19.556 108.067 19.7415C107.757 19.9271 107.509 20.2009 107.356 20.5276C107.204 20.8542 107.154 21.2188 107.212 21.5741C107.271 21.9293 107.435 22.259 107.685 22.5206C107.934 22.7821 108.257 22.9634 108.611 23.0411C108.965 23.1188 109.335 23.0893 109.672 22.9564C110.009 22.8235 110.298 22.5934 110.502 22.2957C110.706 21.998 110.816 21.6464 110.816 21.2864C110.829 21.055 110.793 20.8236 110.713 20.6062C110.632 20.3887 110.508 20.1898 110.347 20.0215C110.187 19.8532 109.994 19.719 109.779 19.627C109.565 19.5351 109.334 19.4873 109.1 19.4866ZM109.1 23.6025C108.492 23.5784 107.917 23.3216 107.495 22.886C107.073 22.4505 106.838 21.8699 106.838 21.2658C106.838 20.6618 107.073 20.0812 107.495 19.6456C107.917 19.21 108.492 18.9533 109.1 18.9291C109.418 18.9165 109.734 18.9676 110.031 19.0794C110.328 19.1911 110.599 19.3612 110.828 19.5794C111.057 19.7977 111.239 20.0595 111.363 20.3493C111.487 20.6391 111.552 20.9508 111.552 21.2658C111.552 21.5808 111.487 21.8925 111.363 22.1823C111.239 22.4721 111.057 22.734 110.828 22.9522C110.599 23.1704 110.328 23.3405 110.031 23.4523C109.734 23.564 109.418 23.6151 109.1 23.6025Z" fill="white"/>
</g>
</mask>
<g mask="url(#mask10_1245_113081)">
<path d="M113.341 17.073H104.871V25.4919H113.341V17.073Z" fill="#F1AE34"/>
</g>
</svg>
